<svg width="50" height="25" viewBox="0 0 50 25" fill="none" xmlns="http://www.w3.org/2000/svg">
<path id="Vector 5" d="M6.94386 15.8991C6.94386 15.8991 8.1363 13.9901 9.70137 14.4472C13.6945 15.6135 12.2646 22.6753 14.024 22.0838C15.7833 21.4922 16.1567 12.082 16.1852 12.2433M16.1852 12.2433C15.8126 10.6299 16.7815 1.80971 18.3093 3.85337C19.8371 5.89702 20.8059 12.1346 20.8059 12.1346M16.1852 12.2433C16.6219 13.2113 16.7815 14.5019 18.3093 16.0346C19.8371 17.5674 20.8059 12.1346 20.8059 12.1346M16.1852 12.2433C16.1852 12.2433 10.5212 3.10044 9.70137 7.40288M16.1852 12.2433H2M16.1852 12.2433H47.9715M20.8059 12.1346C20.8059 12.1346 21.0295 3.74581 22.8927 1.80971C24.7559 -0.126383 28.594 12.2986 28.594 12.2986M20.8059 12.1346C20.8059 12.1346 24.7559 24.4513 26.2837 23.3219C27.8115 22.1925 28.594 12.2986 28.594 12.2986M28.594 12.2986C28.594 12.2986 31.0907 6.81129 32.3577 8.23647C33.6246 9.66165 34.8916 12.1621 34.8916 12.1621M28.594 12.2986C28.594 12.2986 29.8237 20.2026 31.0907 21.1976C32.3577 22.1925 34.8916 12.1621 34.8916 12.1621M34.8916 12.1621C34.8916 12.1621 35.8604 5.35922 37.5 5.97769C39.1396 6.59617 39.6986 9.23141 39.6986 9.23141M34.8916 12.1621C34.8916 12.1621 37.0529 19.5028 37.7236 20.0943C38.3944 20.6859 36.8293 13.3449 42.6424 13.802" stroke="white" stroke-width="2.47876" stroke-linecap="round" stroke-linejoin="round"/>
</svg>
